<svg xmlns="http://www.w3.org/2000/svg" width="495" height="195" viewBox="0 0 495 195">
  <style>
    .bg { fill: #0d1117; }
    .border { stroke: #00d9ff; stroke-width: 1; fill: none; }
    .title { fill: #00d9ff; font: 700 18px 'Segoe UI', sans-serif; }
    .label { fill: #ffffff; font: 600 13px 'Segoe UI', sans-serif; }
    .count { fill: #8b949e; font: 12px 'Segoe UI', sans-serif; }
    .bar { fill: #ff00aa; }
    .bar-bg { fill: #1f2937; }
  </style>
  <rect class="bg" width="495" height="195" rx="8"/>
  <rect class="border" x="0.5" y="0.5" width="494" height="194" rx="8"/>
  <text class="title" x="20" y="32">Top Languages</text>
  <text class="label" x="20" y="67">Python</text><rect class="bar-bg" x="110" y="57" width="280" height="14" rx="3"/><rect class="bar"    x="110" y="57" width="280"          height="14" rx="3"/><text class="count"  x="400" y="67">2</text><text class="label" x="20" y="89">Vue</text><rect class="bar-bg" x="110" y="79" width="280" height="14" rx="3"/><rect class="bar"    x="110" y="79" width="140"          height="14" rx="3"/><text class="count"  x="400" y="89">1</text><text class="label" x="20" y="111">HTML</text><rect class="bar-bg" x="110" y="101" width="280" height="14" rx="3"/><rect class="bar"    x="110" y="101" width="140"          height="14" rx="3"/><text class="count"  x="400" y="111">1</text><text class="label" x="20" y="133">Dart</text><rect class="bar-bg" x="110" y="123" width="280" height="14" rx="3"/><rect class="bar"    x="110" y="123" width="140"          height="14" rx="3"/><text class="count"  x="400" y="133">1</text><text class="label" x="20" y="155">CSS</text><rect class="bar-bg" x="110" y="145" width="280" height="14" rx="3"/><rect class="bar"    x="110" y="145" width="140"          height="14" rx="3"/><text class="count"  x="400" y="155">1</text><text class="label" x="20" y="177">JavaScript</text><rect class="bar-bg" x="110" y="167" width="280" height="14" rx="3"/><rect class="bar"    x="110" y="167" width="140"          height="14" rx="3"/><text class="count"  x="400" y="177">1</text>
</svg>
